#!OML:ASF F:\VICON\USERDATA\INSTALL\rory3\rory3.ASF
:FULLY-SPECIFIED
:DEGREES
373
root -19.8095 17.9452 10.9224 233.269 -83.7324 -237.496
lowerback 11.1839 1.55803 -4.13293
upperback 0.747437 1.48307 -0.400675
thorax -5.58983 0.807652 1.67525
lowerneck -20.6576 -6.19027 -12.2126
upperneck 28.9032 -8.00908 8.66791
head 14.2384 -3.83294 4.05396
rclavicle -1.44616e-014 -7.95139e-016
rhumerus -33.7268 -16.9726 -79.8362
rradius 29.8603
rwrist 11.4154
rhand -14.5876 8.85302
rfingers 7.12502
rthumb 11.5625 -20.808
lclavicle -1.44616e-014 -7.95139e-016
lhumerus -35.5068 4.05573 83.3788
lradius 25.7872
lwrist -9.16283
lhand -18.8024 25.3455
lfingers 7.12502
lthumb 7.49588 55.1927
rfemur -11.355 -4.83343 14.0851
rtibia 69.6276
rfoot 6.84924 -3.10559
rtoes 6.34909
lfemur 5.14677 1.45507 -28.4356
ltibia 4.96962e-015
lfoot 2.11452 -8.71563
ltoes -2.55243
374
root -19.9468 17.945 10.9389 233.11 -83.6154 -237.434
lowerback 11.1215 1.49053 -4.46296
upperback 0.790117 1.36837 -0.202446
thorax -5.51597 0.760093 2.08936
lowerneck -20.7412 -6.16639 -12.1782
upperneck 29.0652 -7.84598 8.24478
head 14.2814 -3.81544 3.90717
rclavicle -4.44781e-015 -1.82882e-014
rhumerus -33.6876 -16.7159 -79.506
rradius 29.2238
rwrist 11.4083
rhand -14.7333 8.89644
rfingers 7.12502
rthumb 11.4219 -20.7724
lclavicle -4.44781e-015 -1.82882e-014
lhumerus -35.3189 3.87665 83.5181
lradius 26.1146
lwrist -8.83249
lhand -18.9616 25.7879
lfingers 7.12502
lthumb 7.34226 55.6405
rfemur -12.4256 -4.95645 13.9361
rtibia 70.3048
rfoot 6.33433 -3.48305
rtoes 9.24871
lfemur 5.7504 1.55065 -28.6604
ltibia 3.27995e-014
lfoot 1.65136 -8.47246
ltoes -3.81311
375
root -20.0842 17.9597 10.9537 233.811 -83.6842 -238.126
lowerback 11.0525 1.41271 -4.49836
upperback 0.770587 1.27186 -0.0934869
thorax -5.49439 0.715543 2.24013
lowerneck -20.7601 -6.24804 -12.3774
upperneck 29.213 -7.88665 8.17573
head 14.3638 -3.86792 3.90742
rclavicle -1.49585e-014 1.47101e-014
rhumerus -33.8422 -16.4951 -79.2636
rradius 28.806
rwrist 11.1321
rhand -15.0804 8.81942
rfingers 7.12502
rthumb 11.0872 -20.8677
lclavicle -1.49585e-014 1.47101e-014
lhumerus -35.002 3.69882 83.634
lradius 26.2802
lwrist -8.75586
lhand -18.9243 26.3318
lfingers 7.12502
lthumb 7.37824 56.1831
rfemur -13.4771 -5.18443 13.9688
rtibia 70.7383
rfoot 5.10987 -5.05652
rtoes 7.38967
lfemur 6.24194 1.45467 -28.7433
ltibia 1.94809e-014
lfoot 1.464 -8.25758
ltoes -2.25088
376
root -20.2127 17.9543 10.9667 235.408 -83.8428 -239.747
lowerback 10.9161 1.34114 -4.56798
upperback 0.875807 1.18514 0.0426337
thorax -5.30514 0.670369 2.43927
lowerneck -20.8233 -6.33142 -12.5574
upperneck 29.2282 -7.92263 8.14419
head 14.3979 -3.90502 3.91712
rclavicle 4.69629e-015 -6.36111e-015
rhumerus -33.8416 -16.419 -78.966
rradius 28.3901
rwrist 10.9381
rhand -15.2425 8.89354
rfingers 7.12502
rthumb 10.9308 -20.8019
lclavicle 4.69629e-015 -6.36111e-015
lhumerus -34.3093 4.06291 83.7146
lradius 26.1699
lwrist -9.30575
lhand -18.622 26.4351
lfingers 7.12502
lthumb 7.67004 56.276
rfemur -14.543 -5.67634 13.9985
rtibia 71.0681
rfoot 4.26561 -5.56375
rtoes 7.49651
lfemur 6.72478 1.23125 -28.7936
ltibia 1.27222e-014
lfoot 1.32519 -8.14167
ltoes 0.843222
377
root -20.3373 17.9337 10.976 236.632 -83.9573 -241.048
lowerback 10.9741 1.24158 -4.46546
upperback 0.90302 1.05721 -0.0368474
thorax -5.29542 0.602907 2.31759
lowerneck -20.9114 -6.31362 -12.3693
upperneck 29.3662 -7.96219 8.11333
head 14.4712 -3.90687 3.86665
rclavicle -1.26974e-014 5.96354e-015
rhumerus -34.0084 -16.5411 -78.9335
rradius 27.9813
rwrist 10.6003
rhand -15.262 9.10144
rfingers 7.12502
rthumb 10.9121 -20.595
lclavicle -1.26974e-014 5.96354e-015
lhumerus -33.8175 4.1887 83.4243
lradius 26.1986
lwrist -9.6441
lhand -18.5822 26.2242
lfingers 7.12502
lthumb 7.70841 56.0637
rfemur -15.5787 -6.14189 13.9889
rtibia 71.2742
rfoot 3.4076 -5.7302
rtoes 7.52333
lfemur 7.26816 1.07311 -28.8357
ltibia 3.97569e-014
lfoot 1.03271 -7.94884
ltoes 3.87783
378
root -20.4623 17.9237 10.9802 238.286 -84.0417 -242.825
lowerback 11.1674 1.09661 -4.35218
upperback 0.889623 0.858287 -0.182753
thorax -5.3987 0.502229 2.12965
lowerneck -20.947 -6.23907 -12.0998
upperneck 29.4526 -7.94621 8.07007
head 14.4973 -3.87804 3.8076
rclavicle -7.90169e-015 -4.77083e-015
rhumerus -34.2202 -16.6917 -79.0528
rradius 27.5059
rwrist 10.1991
rhand -15.481 9.37415
rfingers 7.12502
rthumb 10.7008 -20.3333
lclavicle -7.90169e-015 -4.77083e-015
lhumerus -33.4158 4.32248 82.9609
lradius 26.2385
lwrist -9.92941
lhand -19.0721 26.1562
lfingers 7.12502
lthumb 7.23556 56.0125
rfemur -16.4391 -6.36684 14.0174
rtibia 71.2856
rfoot 2.363 -6.06529
rtoes 10.023
lfemur 7.85765 0.899395 -28.916
ltibia -5.96354e-015
lfoot 0.639679 -7.83792
ltoes 4.75714
379
root -20.5876 17.9159 10.9811 239.892 -84.1532 -244.561
lowerback 11.2329 1.08987 -4.91683
upperback 0.973878 0.80436 0.289815
thorax -5.35805 0.49191 2.95378
lowerneck -20.9193 -6.34866 -12.5756
upperneck 29.3676 -7.85147 7.87905
head 14.4584 -3.91252 3.82535
rclavicle -4.57205e-015 0
rhumerus -34.221 -16.3131 -78.3849
rradius 27.0405
rwrist 9.65144
rhand -15.9964 9.37538
rfingers 7.12502
rthumb 10.2036 -20.3572
lclavicle -4.57205e-015 0
lhumerus -32.9048 4.7588 83.4172
lradius 26.296
lwrist -9.89343
lhand -18.8306 25.6931
lfingers 7.12502
lthumb 7.46863 55.5412
rfemur -17.2407 -6.30875 14.2046
rtibia 71.0985
rfoot 1.23499 -6.32034
rtoes 11.9826
lfemur 8.42746 0.718388 -28.9562
ltibia 3.73715e-014
lfoot 0.321108 -7.83151
ltoes 3.94154
380
root -20.7148 17.8952 10.9848 241.21 -84.204 -245.963
lowerback 11.3187 0.979809 -4.96212
upperback 0.975886 0.648107 0.305491
thorax -5.39079 0.416774 3.02036
lowerneck -20.8735 -6.33286 -12.5339
upperneck 29.3612 -7.8558 7.88703
head 14.4441 -3.91077 3.82109
rclavicle -1.68222e-014 1.19271e-014
rhumerus -34.6521 -16.1201 -78.281
rradius 27.1591
rwrist 8.9554
rhand -16.205 8.87572
rfingers 7.12502
rthumb 10.0024 -20.8666
lclavicle -1.68222e-014 1.19271e-014
lhumerus -32.5634 4.55168 83.3335
lradius 26.66
lwrist -8.82329
lhand -18.2214 25.8603
lfingers 7.12502
lthumb 8.05663 55.6867
rfemur -18.1299 -6.26269 14.2836
rtibia 70.7471
rfoot 0.0627402 -6.09721
rtoes 11.8835
lfemur 8.97415 0.593251 -29.0461
ltibia -1.35174e-014
lfoot 0.0903605 -7.7494
ltoes 3.48144
381
root -20.8435 17.8727 10.9942 242.632 -84.1397 -247.386
lowerback 11.3753 0.65875 -4.46498
upperback 0.888293 0.244406 -0.271561
thorax -5.47323 0.202611 2.19656
lowerneck -20.8597 -5.98181 -11.4586
upperneck 29.4608 -7.76692 7.89546
head 14.4128 -3.75885 3.6623
rclavicle -3.68994e-015 5.96354e-015
rhumerus -35.5249 -16.4819 -78.9535
rradius 27.8142
rwrist 8.74945
rhand -16.139 8.50124
rfingers 7.12502
rthumb 10.0661 -21.238
lclavicle -3.68994e-015 5.96354e-015
lhumerus -32.3814 3.93185 82.4173
lradius 27.0926
lwrist -7.59596
lhand -17.7523 26.4702
lfingers 7.12502
lthumb 8.50941 56.2787
rfemur -19.0768 -6.37932 14.1695
rtibia 70.2541
rfoot -0.96055 -5.68411
rtoes 11.7567
lfemur 9.44643 0.507912 -29.2722
ltibia -7.95139e-016
lfoot -0.177136 -7.59853
ltoes 3.42341
382
root -20.9679 17.8526 11.0029 244.196 -84.0773 -248.961
lowerback 11.4395 0.397058 -4.26308
upperback 0.828414 -0.107253 -0.656671
thorax -5.54812 0.021821 1.73441
lowerneck -20.8407 -5.69829 -10.4091
upperneck 29.5126 -7.66894 7.64406
head 14.3495 -3.63735 3.39936
rclavicle -3.15571e-015 8.34896e-015
rhumerus -36.1137 -16.7955 -79.3622
rradius 28.0303
rwrist 8.85643
rhand -16.1523 8.52618
rfingers 7.12502
rthumb 10.0532 -21.2137
lclavicle -3.15571e-015 8.34896e-015
lhumerus -32.1139 3.18046 81.8584
lradius 27.571
lwrist -5.85199
lhand -17.6233 27.2059
lfingers 7.12502
lthumb 8.63389 57.0094
rfemur -19.9116 -6.42363 14.0861
rtibia 69.5828
rfoot -1.81286 -5.48867
rtoes 12.5667
lfemur 9.91537 0.404897 -29.4841
ltibia 1.74931e-014
lfoot -0.547632 -7.35274
ltoes 3.89817
383
root -21.0886 17.8307 11.0073 245.935 -83.9988 -250.707
lowerback 11.4672 0.242785 -4.13189
upperback 0.835271 -0.318094 -0.962321
thorax -5.54593 -0.0902669 1.37363
lowerneck -20.8558 -5.63625 -10.0142
upperneck 29.4974 -7.76569 7.75314
head 14.3424 -3.62109 3.35727
rclavicle 3.77691e-015 5.56597e-015
rhumerus -36.4398 -17.1171 -79.5634
rradius 27.9137
rwrist 8.93743
rhand -16.0687 8.51434
rfingers 7.12502
rthumb 10.1339 -21.2216
lclavicle 3.77691e-015 5.56597e-015
lhumerus -31.6077 2.4196 81.4565
lradius 28.2234
lwrist -3.59993
lhand -17.0923 28.4576
lfingers 7.12502
lthumb 9.1463 58.2392
rfemur -20.7395 -6.33071 14.0379
rtibia 68.7441
rfoot -2.68081 -5.55125
rtoes 13.2725
lfemur 8.03989 0.237334 -29.6211
ltibia 4.59551
lfoot -3.24209 -6.85457
ltoes 4.13935
384
root -21.2086 17.8075 11.0106 248.352 -83.9908 -253.118
lowerback 11.5397 0.204654 -4.40054
upperback 0.835843 -0.397161 -0.806563
thorax -5.57892 -0.11967 1.70134
lowerneck -20.9297 -5.71866 -10.3258
upperneck 29.5181 -7.7927 7.83782
head 14.3919 -3.65372 3.4399
rclavicle -1.04362e-015 -9.54166e-015
rhumerus -36.7959 -17.2216 -79.0432
rradius 27.8964
rwrist 8.78639
rhand -15.882 8.65048
rfingers 7.12502
rthumb 10.314 -21.0766
lclavicle -1.04362e-015 -9.54166e-015
lhumerus -31.2112 2.36201 81.6277
lradius 28.5546
lwrist -3.71886
lhand -17.9843 28.8165
lfingers 7.12502
lthumb 8.28553 58.634
rfemur -21.5011 -6.01156 14.1136
rtibia 67.7169
rfoot -3.58013 -5.80815
rtoes 13.2717
lfemur 7.51166 -0.00238437 -29.7423
ltibia 6.48372
lfoot -4.53325 -6.58586
ltoes 3.38732
385
root -21.3318 17.7872 11.0163 250.64 -83.9373 -255.374
lowerback 11.5819 0.136269 -4.52623
upperback 0.821144 -0.506492 -0.796511
thorax -5.61031 -0.169278 1.80053
lowerneck -21.049 -5.74406 -10.2944
upperneck 29.6075 -7.8151 7.77183
head 14.4552 -3.66634 3.40313
rclavicle -3.91357e-015 -5.96354e-015
rhumerus -37.1231 -17.6722 -78.5569
rradius 27.7308
rwrist 8.77824
rhand -15.7457 9.10255
rfingers 7.12502
rthumb 10.4454 -20.618
lclavicle -3.91357e-015 -5.96354e-015
lhumerus -30.9213 2.03139 81.741
lradius 29.0641
lwrist -3.23106
lhand -17.8674 28.6209
lfingers 7.12502
lthumb 8.39833 58.4339
rfemur -22.2293 -5.88795 14.1039
rtibia 66.5158
rfoot -4.44689 -5.6724
rtoes 10.2806
lfemur 7.3213 -0.213637 -29.9034
ltibia 7.67582
lfoot -5.37985 -6.44449
ltoes 3.41465
386
root -21.4553 17.7679 11.0171 251.933 -83.9665 -256.65
lowerback 11.5186 0.00369782 -4.50456
upperback 0.88192 -0.679925 -0.865505
thorax -5.5007 -0.259879 1.74302
lowerneck -21.117 -5.72775 -10.1811
upperneck 29.5486 -7.86343 7.89538
head 14.4503 -3.65495 3.4233
rclavicle 1.19519e-014 6.36111e-015
rhumerus -37.2616 -18.1144 -78.3956
rradius 27.4274
rwrist 9.13938
rhand -15.8529 9.39366
rfingers 7.12502
rthumb 10.3421 -20.332
lclavicle 1.19519e-014 6.36111e-015
lhumerus -30.5212 1.58763 81.6164
lradius 29.5359
lwrist -2.50573
lhand -17.591 27.9951
lfingers 7.12502
lthumb 8.66501 57.7973
rfemur -22.8987 -5.85217 14.2738
rtibia 65.1602
rfoot -5.34045 -5.51289
rtoes 4.43341
lfemur 7.38948 -0.350991 -29.9214
ltibia 8.3895
lfoot -5.98313 -6.33851
ltoes 3.55181
